<?xml version="1.0" encoding="utf-8"?>
<!-- Generator: Adobe Illustrator 22.1.0, SVG Export Plug-In . SVG Version: 6.00 Build 0)  -->
<svg version="1.1" id="Layer_1" xmlns="http://www.w3.org/2000/svg" xmlns:xlink="http://www.w3.org/1999/xlink" x="0px" y="0px"
	 viewBox="0 0 44.5 33.2" style="enable-background:new 0 0 44.5 33.2;" xml:space="preserve">
<style type="text/css">
	.st0{fill:#0F0F0F;}
</style>
<path class="st0" d="M44.5,0H0v12v21.3h44.5V12h0L44.5,0L44.5,0z M25.1,3.3c1.4,0,2.6,1.2,2.6,2.6c0,1.4-1.2,2.6-2.6,2.6
	c-1.4,0-2.6-1.2-2.6-2.6C22.5,4.5,23.7,3.3,25.1,3.3z M16.5,3.3c1.4,0,2.6,1.2,2.6,2.6c0,1.4-1.2,2.6-2.6,2.6
	c-1.4,0-2.6-1.2-2.6-2.6C13.9,4.5,15.1,3.3,16.5,3.3z M7.9,3.3c1.4,0,2.6,1.2,2.6,2.6c0,1.4-1.2,2.6-2.6,2.6c-1.4,0-2.6-1.2-2.6-2.6
	C5.3,4.5,6.5,3.3,7.9,3.3z M41.5,30.2H3V12h38.5V30.2z"/>
</svg>
