<svg xmlns="http://www.w3.org/2000/svg" viewBox="0 0 22.129 27.674">
  <defs>
    <style>
      .cls-1 {
        fill: #fff;
      }
    </style>
  </defs>
  <g id="github-big-logo" transform="translate(-47.949 0)">
    <g id="Group_75" data-name="Group 75" transform="translate(47.949 0)">
      <path id="Path_66" data-name="Path 66" class="cls-1" d="M69.9,11.6a15.847,15.847,0,0,0,.183-2.161,7.311,7.311,0,0,0-1.962-5.206c.465-2.6-.077-3.776-.329-4.18-.929-.33-3.233.851-4.491,1.683-2.052-.6-6.389-.542-8.015.155C52.28-.253,50.693.074,50.693.074a6.332,6.332,0,0,0-.271,4.532A6.087,6.087,0,0,0,48.7,9.113a13.934,13.934,0,0,0,.095,1.613c.85,4.471,4.393,6.4,7.872,6.732a3.133,3.133,0,0,0-1.239,2.023,4.041,4.041,0,0,1-3.011.242c-1.442-.456-1.994-3.311-4.153-2.9-.467.087-.374.4.03.658a4.246,4.246,0,0,1,1.755,2.092A3.54,3.54,0,0,0,53.625,22a10.939,10.939,0,0,0,1.647-.114s.018,2.221.018,3.087c0,1-1.345,1.277-1.345,1.755,0,.19.445.208.8.208.707,0,2.178-.589,2.178-1.625,0-.823.013-3.59.013-4.074a1.564,1.564,0,0,1,.567-1.4s.069,5.651-.137,6.408c-.242.891-.679.764-.679,1.161,0,.592,1.769.145,2.355-1.15.454-1.012.251-6.553.251-6.553l.473-.01s.005,2.538-.011,3.7c-.017,1.2-.141,2.719.572,3.436.468.471,1.9,1.3,1.9.542,0-.438-1-.8-1-1.986V19.917c.61,0,.736,1.8.736,1.8l.22,3.338A1.7,1.7,0,0,0,63.5,26.778c.516.181,1.62.23,1.672-.073s-1.329-.754-1.342-1.7c-.007-.574.026-.91.026-3.408s-.335-3.419-1.5-4.155C65.742,17.1,69.261,15.584,69.9,11.6Z" transform="translate(-47.949 0)"/>
    </g>
  </g>
</svg>
