<?xml version="1.0" encoding="utf-8"?>
<!-- Generator: Adobe Illustrator 22.1.0, SVG Export Plug-In . SVG Version: 6.00 Build 0)  -->
<svg version="1.1" id="Layer_1" xmlns="http://www.w3.org/2000/svg" xmlns:xlink="http://www.w3.org/1999/xlink" x="0px" y="0px"
	 viewBox="0 0 19.8 21.4" style="enable-background:new 0 0 19.8 21.4;" xml:space="preserve">
<style type="text/css">
	.st0{fill:#00FFFF;}
</style>
<path id="Path_1804" class="st0" d="M17.1,0.4v1.2h-1.6c-0.2,0-0.4,0.2-0.4,0.4l0,0v4.8c0,0.2,0.2,0.4,0.4,0.4l0,0h1.6V21
	c0,0.2,0.1,0.4,0.3,0.4c0.2,0,0.4-0.1,0.4-0.3c0,0,0-0.1,0-0.1V7.1h1.6c0.2,0,0.4-0.2,0.4-0.4l0,0V2c0-0.2-0.2-0.4-0.4-0.4l0,0h-1.6
	V0.4c0-0.2-0.2-0.4-0.4-0.3C17.2,0.1,17.1,0.2,17.1,0.4z M19,2.4v4h-3.2v-4H19z"/>
<path id="Path_1805" class="st0" d="M10.3,21v-7.5h1.6c0.2,0,0.4-0.2,0.4-0.4V8.3c0-0.2-0.2-0.4-0.4-0.4h-1.6V0.4
	c0-0.2-0.2-0.4-0.4-0.3c-0.2,0-0.3,0.2-0.3,0.3v7.5H7.9c-0.2,0-0.4,0.2-0.4,0.4v4.8c0,0.2,0.2,0.4,0.4,0.4h1.6V21
	c0,0.2,0.2,0.4,0.4,0.3C10.2,21.4,10.3,21.2,10.3,21L10.3,21z M8.3,12.7v-4h3.2v4H8.3z"/>
<path id="Path_1806" class="st0" d="M2.8,21v-1.2h1.6c0.2,0,0.4-0.2,0.4-0.4c0,0,0,0,0,0v-4.8c0-0.2-0.2-0.4-0.4-0.4l0,0H2.8V0.4
	c0-0.2-0.2-0.4-0.4-0.3C2.1,0.1,2,0.2,2,0.4v13.9H0.4c-0.2,0-0.4,0.2-0.4,0.4v0v4.8c0,0.2,0.2,0.4,0.4,0.4l0,0H2V21
	c0,0.2,0.1,0.4,0.3,0.4c0.2,0,0.4-0.1,0.4-0.3C2.8,21.1,2.8,21.1,2.8,21L2.8,21z M0.8,19v-4H4v4L0.8,19z"/>
</svg>
